<svg width="332" height="50" viewBox="0 0 332 50" fill="none" xmlns="http://www.w3.org/2000/svg">
<g filter="url(#filter0_ii_94_11542)">
<mask id="path-1-inside-1_94_11542" fill="white">
<path d="M0 0H332V50H0V0Z"/>
</mask>
<path d="M0 0H332V50H0V0Z" fill="#D0C5C0"/>
<path d="M0 0V-2H-2V0H0ZM332 0H334V-2H332V0ZM332 50V52H334V50H332ZM0 50H-2V52H0V50ZM0 0V2H332V0V-2H0V0ZM332 0H330V50H332H334V0H332ZM332 50V48H0V50V52H332V50ZM0 50H2V0H0H-2V50H0Z" fill="#262423" mask="url(#path-1-inside-1_94_11542)"/>
</g>
<defs>
<filter id="filter0_ii_94_11542" x="0" y="-2" width="332" height="54" filterUnits="userSpaceOnUse" color-interpolation-filters="sRGB">
<feFlood flood-opacity="0" result="BackgroundImageFix"/>
<feBlend mode="normal" in="SourceGraphic" in2="BackgroundImageFix" result="shape"/>
<feColorMatrix in="SourceAlpha" type="matrix" values="0 0 0 0 0 0 0 0 0 0 0 0 0 0 0 0 0 0 127 0" result="hardAlpha"/>
<feMorphology radius="2" operator="erode" in="SourceAlpha" result="effect1_innerShadow_94_11542"/>
<feOffset dy="-6"/>
<feComposite in2="hardAlpha" operator="arithmetic" k2="-1" k3="1"/>
<feColorMatrix type="matrix" values="0 0 0 0 0.670588 0 0 0 0 0.627451 0 0 0 0 0.611765 0 0 0 1 0"/>
<feBlend mode="normal" in2="shape" result="effect1_innerShadow_94_11542"/>
<feColorMatrix in="SourceAlpha" type="matrix" values="0 0 0 0 0 0 0 0 0 0 0 0 0 0 0 0 0 0 127 0" result="hardAlpha"/>
<feMorphology radius="2" operator="erode" in="SourceAlpha" result="effect2_innerShadow_94_11542"/>
<feOffset dy="6"/>
<feComposite in2="hardAlpha" operator="arithmetic" k2="-1" k3="1"/>
<feColorMatrix type="matrix" values="0 0 0 0 0.929412 0 0 0 0 0.898039 0 0 0 0 0.886275 0 0 0 1 0"/>
<feBlend mode="normal" in2="effect1_innerShadow_94_11542" result="effect2_innerShadow_94_11542"/>
</filter>
</defs>
</svg>
